<?xml version="1.0"?>
<svg xmlns="http://www.w3.org/2000/svg" xmlns:xlink="http://www.w3.org/1999/xlink" version="1.1" viewBox="0 0 252 252" width="48px" height="48px"><g fill="none" fill-rule="nonzero" stroke="none" stroke-width="1" stroke-linecap="butt" stroke-linejoin="miter" stroke-miterlimit="10" stroke-dasharray="" stroke-dashoffset="0" font-family="none" font-weight="none" font-size="none" text-anchor="none" style="mix-blend-mode: normal"><path d="M0,252v-252h252v252z" fill="none"/><g id="Layer_1" fill="#ffffff"><path d="M162.75,36.7605l68.25,8.8515l-56.196,54.138z"/><path d="M89.25,215.25l-68.25,-8.8515l56.196,-54.1485z"/><path d="M42,126c0,-46.39425 37.60575,-84 84,-84c5.376,0 10.61025,0.5565 15.708,1.5225l3.63825,-20.29125c-6.09,-1.64325 -12.72075,-2.205 -19.34625,-2.205c-58.02825,0 -105,46.97175 -105,105c0,25.431 8.8515,49.7385 25.431,68.51775l15.94425,-13.80225c-12.66825,-14.7105 -20.37525,-33.81 -20.37525,-54.74175z"/><path d="M207.23325,59.15175l-16.50075,13.31925c12.033,14.532 19.2675,33.18525 19.2675,53.529c0,46.39425 -37.60575,84 -84,84c-5.40225,0 -10.67325,-0.5565 -15.792,-1.533l-3.549,19.79775c6.6255,1.1025 13.25625,1.66425 19.341,1.66425c58.02825,0 105,-46.97175 105,-105c0,-23.21025 -8.28975,-46.977 -23.76675,-65.77725z"/></g></g></svg>
