<?xml version="1.0" encoding="UTF-8"?>
<svg width="156px" height="57px" viewBox="0 0 156 57" version="1.1" xmlns="http://www.w3.org/2000/svg" xmlns:xlink="http://www.w3.org/1999/xlink">
    <!-- Generator: Sketch 50.2 (55047) - http://www.bohemiancoding.com/sketch -->
    <title>orion-logo</title>
    <desc>Created with Sketch.</desc>
    <defs></defs>
    <g id="Page-2" stroke="none" stroke-width="1" fill="none" fill-rule="evenodd">
        <g id="Desktop5" transform="translate(-278.000000, -18.000000)">
            <g id="orion-logo" transform="translate(278.000000, 17.000000)">
                <g id="logo" transform="translate(72.000000, 41.666667)" fill="#F0F3F3">
                    <path d="M8.97788696,2.15675186 L5.30492253,2.15675186 L5.30492253,12.4076702 L3.80591355,12.4076702 L3.80591355,2.15675186 L0.140797335,2.15675186 L0.140797335,0.908951324 L8.97788696,0.908951324 L8.97788696,2.15675186 Z M14.5501193,5.17358607 C14.3303682,5.13673102 14.0923081,5.11830377 13.8359318,5.11830377 C12.883677,5.11830377 12.2375138,5.52633573 11.8974228,6.3424119 L11.8974228,12.4076702 L10.4455031,12.4076702 L10.4455031,3.86260576 L11.8581817,3.86260576 L11.8817264,4.84978973 C12.3578538,4.08636365 13.0327935,3.70465633 13.9065657,3.70465633 C14.1891029,3.70465633 14.4036186,3.74151083 14.5501193,3.81522093 L14.5501193,5.17358607 Z M21.1269231,12.4076702 C21.0432084,12.23919 20.9751913,11.939089 20.9228696,11.5073584 C20.2479197,12.2128694 19.4421778,12.5656196 18.5056195,12.5656196 C17.6684724,12.5656196 16.9817605,12.3273816 16.4454631,11.8508984 C15.9091658,11.3744153 15.6410211,10.7702647 15.6410211,10.0384287 C15.6410211,9.14864241 15.977183,8.45762054 16.6495167,7.96534234 C17.3218505,7.47306414 18.2675509,7.22692873 19.4866463,7.22692873 L20.8993249,7.22692873 L20.8993249,6.55564363 C20.8993249,6.04493791 20.7475943,5.63822218 20.4441285,5.33548425 C20.1406627,5.03274631 19.6933189,4.88137962 19.1020838,4.88137962 C18.584099,4.88137962 18.1498355,5.01300283 17.7992802,5.27625321 C17.4487248,5.53950358 17.2734498,5.85803176 17.2734498,6.23184729 L15.8136819,6.23184729 C15.8136819,5.80538168 15.9641045,5.39340103 16.2649542,4.99589296 C16.5658039,4.59838489 16.973907,4.28380541 17.4892757,4.05214508 C18.0046443,3.82048475 18.5710182,3.70465633 19.1884141,3.70465633 C20.1668298,3.70465633 20.9333311,3.95079174 21.487941,4.44306994 C22.042551,4.93534814 22.3303159,5.61320769 22.3512446,6.47666892 L22.3512446,10.4096099 C22.3512446,11.194096 22.4506543,11.81799 22.6494768,12.2813107 L22.6494768,12.4076702 L21.1269231,12.4076702 Z M18.7175213,11.2941267 C19.17272,11.2941267 19.6043675,11.1756658 20.0124767,10.9387405 C20.4205859,10.7018151 20.716199,10.3938168 20.8993249,10.0147363 L20.8993249,8.26149753 L19.7613338,8.26149753 C17.9823963,8.26149753 17.0929408,8.78535792 17.0929408,9.83309441 C17.0929408,10.2911501 17.2446715,10.6491652 17.5481373,10.9071506 C17.8516031,11.1651359 18.2413939,11.2941267 18.7175213,11.2941267 Z M28.033352,11.3731014 C28.5513367,11.3731014 29.0039126,11.2151536 29.3910931,10.8992531 C29.7782736,10.5833527 29.9927893,10.188483 30.0346467,9.71463234 L31.4080843,9.71463234 C31.3819234,10.204278 31.2144965,10.6702242 30.9057985,11.1124848 C30.5971005,11.5547455 30.1850734,11.9074957 29.6697047,12.1707461 C29.1543361,12.4339964 28.6088906,12.5656196 28.033352,12.5656196 C26.8770426,12.5656196 25.9575026,12.1773312 25.2747046,11.4007426 C24.5919065,10.624154 24.2505125,9.56195462 24.2505125,8.2141127 L24.2505125,7.96929108 C24.2505125,7.13741989 24.4022432,6.39769744 24.705709,5.75010151 C25.0091748,5.10250559 25.4447464,4.59970492 26.0124367,4.24168441 C26.5801271,3.8836639 27.2511427,3.70465633 28.0255038,3.70465633 C28.9777586,3.70465633 29.7691123,3.99159493 30.3995887,4.56548075 C31.0300651,5.13936657 31.3662269,5.88435395 31.4080843,6.80046526 L30.0346467,6.80046526 C29.9927893,6.24763947 29.7848137,5.79353939 29.4107136,5.43815138 C29.0366135,5.08276337 28.5748815,4.90507204 28.0255038,4.90507204 C27.2877679,4.90507204 26.716162,5.17226716 26.3106689,5.70666542 C25.9051758,6.24106368 25.7024322,7.01369194 25.7024322,8.02457338 L25.7024322,8.30098489 C25.7024322,9.28554129 25.9038677,10.043691 26.3067448,10.5754568 C26.7096218,11.1072225 27.2851518,11.3731014 28.033352,11.3731014 Z M34.618004,12.4076702 L33.1660843,12.4076702 L33.1660843,3.86260576 L34.618004,3.86260576 L34.618004,12.4076702 Z M33.0483611,1.59603137 C33.0483611,1.35910603 33.1203023,1.15903875 33.264187,0.995823513 C33.4080717,0.832608281 33.6212794,0.751001889 33.9038165,0.751001889 C34.1863536,0.751001889 34.4008693,0.832608281 34.5473701,0.995823513 C34.6938708,1.15903875 34.7671201,1.35910603 34.7671201,1.59603137 C34.7671201,1.8329567 34.6938708,2.03039152 34.5473701,2.18834175 C34.4008693,2.34629197 34.1863536,2.4252659 33.9038165,2.4252659 C33.6212794,2.4252659 33.4080717,2.34629197 33.264187,2.18834175 C33.1203023,2.03039152 33.0483611,1.8329567 33.0483611,1.59603137 Z M38.3145131,3.86260576 L38.3616024,4.93666192 C39.0103914,4.11532075 39.8579901,3.70465633 40.9044239,3.70465633 C42.6990579,3.70465633 43.6042096,4.72342 43.6199061,6.7609779 L43.6199061,12.4076702 L42.1679865,12.4076702 L42.1679865,6.75308043 C42.1627543,6.13707455 42.0227959,5.68165823 41.748107,5.38681781 C41.4734181,5.09197739 41.0456947,4.94455939 40.4649239,4.94455939 C39.9940287,4.94455939 39.5806935,5.07091768 39.224906,5.32363804 C38.8691185,5.5763584 38.5918177,5.9080489 38.3929952,6.31871948 L38.3929952,12.4076702 L36.9410755,12.4076702 L36.9410755,3.86260576 L38.3145131,3.86260576 Z M45.4642366,8.06406074 C45.4642366,6.73201384 45.7703139,5.67244698 46.3824777,4.88532836 C46.9946415,4.09820973 47.8056155,3.70465633 48.8154242,3.70465633 C49.8513937,3.70465633 50.6597517,4.07320132 51.2405225,4.81030237 L51.3111564,3.86260576 L52.6375047,3.86260576 L52.6375047,12.2023359 C52.6375047,13.3079875 52.3118071,14.1793332 51.660402,14.8163991 C51.0089969,15.453465 50.1339298,15.7719932 49.0351742,15.7719932 C48.4230104,15.7719932 47.823936,15.64037 47.2379331,15.3771196 C46.6519301,15.1138692 46.2045864,14.7532216 45.8958884,14.295166 L46.649317,13.4185466 C47.2719451,14.1925027 48.0332143,14.5794749 48.9331474,14.5794749 C49.6394903,14.5794749 50.1901678,14.3794077 50.5851966,13.9792671 C50.9802254,13.5791265 51.1777368,13.0157792 51.1777368,12.2892081 L51.1777368,11.5547433 C50.596966,12.2286642 49.8043043,12.5656196 48.7997278,12.5656196 C47.8056156,12.5656196 47.0011817,12.1628526 46.3864018,11.3573065 C45.7716219,10.5517603 45.4642366,9.45402272 45.4642366,8.06406074 Z M46.9240045,8.22990765 C46.9240045,9.19340402 47.1202079,9.95023749 47.5126206,10.5004308 C47.9050333,11.0506241 48.4544028,11.3257166 49.1607456,11.3257166 C50.0763753,11.3257166 50.7486989,10.9071548 51.1777368,10.0700186 L51.1777368,6.16866752 C50.7330024,5.35259135 50.0659108,4.94455939 49.1764421,4.94455939 C48.4700992,4.94455939 47.9181137,5.22096814 47.5204688,5.77379393 C47.1228239,6.32661972 46.9240045,7.1453161 46.9240045,8.22990765 Z M60.7761032,1.79346816 L60.7761032,3.86260576 L62.3614426,3.86260576 L62.3614426,4.99194422 L60.7761032,4.99194422 L60.7761032,10.2911478 C60.7761032,10.6333733 60.8467365,10.8900385 60.988005,11.0611513 C61.1292736,11.232264 61.3699498,11.3178191 61.7100408,11.3178191 C61.8774702,11.3178191 62.1076822,11.2862295 62.4006837,11.2230494 L62.4006837,12.4076702 C62.0187353,12.5129704 61.6472569,12.5656196 61.2862372,12.5656196 C60.6374482,12.5656196 60.1482477,12.3681848 59.8186211,11.9733093 C59.4889944,11.5784337 59.3241835,11.0177188 59.3241835,10.2911478 L59.3241835,4.99194422 L57.7780853,4.99194422 L57.7780853,3.86260576 L59.3241835,3.86260576 L59.3241835,1.79346816 L60.7761032,1.79346816 Z M63.6720944,8.05616327 C63.6720944,7.21902708 63.8355973,6.4661423 64.1626078,5.79748634 C64.4896184,5.12883039 64.9448103,4.6128674 65.5281972,4.24958188 C66.111584,3.88629636 66.7773676,3.70465633 67.5255678,3.70465633 C68.6818772,3.70465633 69.6171134,4.10742336 70.3313045,4.91296951 C71.0454956,5.71851565 71.4025858,6.78992861 71.4025858,8.12724051 L71.4025858,8.22990765 C71.4025858,9.06177883 71.244315,9.80808245 70.9277688,10.4688409 C70.6112226,11.1295993 70.1586467,11.6442461 69.5700277,12.0127966 C68.9814086,12.3813471 68.3051609,12.5656196 67.5412642,12.5656196 C66.390187,12.5656196 65.4575668,12.1628526 64.7433757,11.3573065 C64.0291846,10.5517603 63.6720944,9.48561229 63.6720944,8.1588304 L63.6720944,8.05616327 Z M65.1318623,8.22990765 C65.1318623,9.177609 65.3503021,9.93839117 65.7871883,10.512277 C66.2240744,11.0861628 66.8087605,11.3731014 67.5412642,11.3731014 C68.2790001,11.3731014 68.8649942,11.0822141 69.2992643,10.5004308 C69.7335343,9.91864745 69.9506661,9.10389976 69.9506661,8.05616327 C69.9506661,7.11899193 69.7296103,6.35952599 69.287492,5.77774266 C68.8453737,5.19595934 68.2580715,4.90507204 67.5255678,4.90507204 C66.8087606,4.90507204 66.2306146,5.19201064 65.7911124,5.76589646 C65.3516101,6.33978227 65.1318623,7.16111112 65.1318623,8.22990765 Z M72.8388091,8.05616327 C72.8388091,7.21902708 73.0023119,6.4661423 73.3293225,5.79748634 C73.656333,5.12883039 74.1115249,4.6128674 74.6949118,4.24958188 C75.2782987,3.88629636 75.9440822,3.70465633 76.6922824,3.70465633 C77.8485918,3.70465633 78.783828,4.10742336 79.4980191,4.91296951 C80.2122102,5.71851565 80.5693004,6.78992861 80.5693004,8.12724051 L80.5693004,8.22990765 C80.5693004,9.06177883 80.4110297,9.80808245 80.0944834,10.4688409 C79.7779372,11.1295993 79.3253614,11.6442461 78.7367423,12.0127966 C78.1481233,12.3813471 77.4718756,12.5656196 76.7079788,12.5656196 C75.5569016,12.5656196 74.6242814,12.1628526 73.9100903,11.3573065 C73.1958993,10.5517603 72.8388091,9.48561229 72.8388091,8.1588304 L72.8388091,8.05616327 Z M74.298577,8.22990765 C74.298577,9.177609 74.5170168,9.93839117 74.9539029,10.512277 C75.390789,11.0861628 75.9754752,11.3731014 76.7079788,11.3731014 C77.4457147,11.3731014 78.0317089,11.0822141 78.4659789,10.5004308 C78.900249,9.91864745 79.1173807,9.10389976 79.1173807,8.05616327 C79.1173807,7.11899193 78.8963249,6.35952599 78.4542066,5.77774266 C78.0120883,5.19595934 77.4247861,4.90507204 76.6922824,4.90507204 C75.9754752,4.90507204 75.3973292,5.19201064 74.957827,5.76589646 C74.5183248,6.33978227 74.298577,7.16111112 74.298577,8.22990765 Z M83.9675773,12.4076702 L82.5156576,12.4076702 L82.5156576,0.277153583 L83.9675773,0.277153583 L83.9675773,12.4076702 Z" id="Tracing-tool"></path>
                </g>
                <path d="M24.2412454,42.5838531 L18.6110454,36.5473761 C18.3218977,37.4727629 18.0514291,38.0778553 17.7996396,38.3626534 C17.5478502,38.6474515 17.0645896,38.8948994 16.3498577,39.1049972 C16.9702001,40.39562 16.6784085,41.0860847 15.4744828,41.1763915 C13.9548299,41.3346987 12.2229928,40.7875351 10.2789714,39.5349006 C8.1351629,40.6517707 6.06811233,40.8464778 4.07781967,40.1190217 C3.58690957,39.9266196 3.1488913,39.1437833 3.48254431,38.1559652 C3.55606951,37.9382853 3.75449463,37.5654658 4.07781967,37.0375065 C1.48310253,35.5304646 0.126778481,34.317069 0.0088475154,33.3973197 C-0.13269015,31.7718488 1.44627722,32.5891216 3.14399585,31.0536871 C3.44878496,30.8303295 3.56163445,30.4238816 3.48254431,29.8343431 C3.44053727,29.6047158 3.38874838,29.4372664 3.32717765,29.3319949 C2.68990969,28.2424166 2.2447969,27.5040943 2.63001822,26.764995 C3.06884435,25.9062021 4.17289401,25.5566521 5.94216721,25.716345 C4.75072288,24.275594 4.24753605,22.9353566 4.43260672,21.6956328 C4.54020049,21.1266868 5.14539362,20.8775996 6.2481861,20.9483715 C6.64810945,20.9476617 6.79825531,20.6081388 6.69862369,19.9298026 C6.49061607,18.8431074 6.40980743,18.0812312 6.69862369,17.679534 C7.0082046,17.2259555 7.69560203,17.5123272 8.64285463,17.3652685 C8.8946186,17.3261828 9.30285332,17.0946872 9.86755878,16.6707819 C7.83317611,16.0618872 7.1493393,15.0769792 7.81604837,13.7160578 C8.65762651,12.1211229 11.5022296,11.3324079 16.3498577,11.3499129 C15.6188496,9.87704761 15.6646286,8.80583888 16.4871947,8.13628668 C17.4261094,7.45025684 18.4769441,7.686822 19.6396986,8.84598218 C20.0930504,6.60682909 20.6443537,5.25393455 21.2936085,4.78729857 C22.2498346,3.76120836 23.7827751,3.6301588 25.8924302,4.39414988 C26.1560192,2.78180931 27.0340382,1.73937804 28.526487,1.26685606 C31.0874178,0.518276611 33.3693067,1.56657174 33.6380292,1.71708863 C33.9067517,1.86760552 34.2156042,2.09136218 34.8333467,2.78566222 C34.9516398,2.91861546 35.1804338,3.12741001 35.519729,3.41204589 C36.1040298,3.06086874 36.6820842,2.78975171 37.2538922,2.59869479 C37.8257002,2.40763788 38.4902253,2.31082512 39.2474675,2.30825651 C39.7269774,2.30524854 40.0358774,2.50556595 40.1741673,2.90920875 C40.2782179,3.36321851 40.162578,3.89211603 40.1741673,4.51054825 C40.178639,4.74916743 40.2276804,5.13707583 40.3212916,5.67427347 C40.6861833,6.44163937 41.0688789,6.91397715 41.4693784,7.0912868 C41.8698779,7.26859646 42.599043,7.28850315 43.6568739,7.15100688 C44.8489961,7.12978209 45.5506779,7.17575159 45.7619193,7.28891539 C45.9731607,7.40207919 46.1531646,7.65993176 46.301931,8.06247308 C46.7241151,8.99416074 47.0639557,9.53792772 47.3214527,9.69377401 C47.5789498,9.8496203 48.0703854,9.91912473 48.7957598,9.9022873 C49.3808322,9.85764895 49.8270268,9.89673569 50.1343436,10.0195475 C50.4416603,10.1423593 50.8777975,10.5043975 51.4427551,11.105662 C51.7774796,11.6522679 51.7988691,12.0680778 51.5069237,12.3530916 C51.0006987,12.7844652 50.6937369,12.9639803 50.1899739,13.2689177 C49.8869582,13.4713643 49.6069735,13.734038 49.3500196,14.0569387 C49.2464795,14.4986262 49.2464795,14.8528571 49.3500196,15.1196316 C49.5053297,15.5197932 49.7676596,15.9758192 50.5052121,16.3283293 C51.9317462,16.4399623 52.6000268,16.449189 53.0901864,16.9072287 C53.580346,17.3652685 53.4050801,18.1594642 53.0289512,19.3972719 C53.0060792,19.4725417 53.0060792,19.5721427 53.0289512,19.696075 C54.6722618,19.5589926 55.7073586,19.6056838 56.1342415,19.8361485 C56.7745659,20.1818456 56.4957544,20.7375818 56.7745659,21.9027773 C56.8002927,22.0102938 56.9398049,22.1825932 57.1931025,22.4196753 C57.4400508,22.5184055 57.8920075,22.8407992 58.5489726,23.3868566 C59.0088781,23.7691217 59.3123001,24.1855583 59.6169481,24.510689 C59.7039715,24.6035633 59.8465393,24.7167171 60.0446517,24.8501505 C60.1545313,25.1913239 60.1545313,25.4800554 60.0446517,25.716345 C59.934772,25.9526346 59.7536506,26.25039 59.5012874,26.6096113 C59.5269898,27.1412788 59.5269898,27.4847115 59.5012874,27.6399093 C59.4183484,27.7651964 59.3546163,27.9112013 59.3100911,28.0779241 C60.1217064,28.0206712 60.9290787,28.4083954 61.7322081,29.2410967 C61.7322081,29.6196618 61.0741086,29.9729126 59.7579096,30.3008492 C59.1041403,30.4533094 58.7011613,30.6508892 58.5489726,30.8935886 C58.3967838,31.136288 58.3967838,31.3710957 58.5489726,31.5980117 C58.8054026,31.9557576 58.8875559,32.4070886 58.7954325,32.9520047 C58.703309,33.4969208 58.24236,34.5335051 57.4125854,36.0617576 C58.1300867,35.7361869 58.9118614,35.7733472 59.7579096,36.1732385 C60.6039577,36.5731298 61.2370727,37.4190218 61.6572547,38.7109145 C60.7353995,39.2890057 60.1022844,39.6398641 59.7579096,39.7634896 C59.4135347,39.8871151 58.9905106,39.9131222 58.4888374,39.841511 C57.8802088,39.6809264 57.4080674,39.7149774 57.0724131,39.9436637 C56.7367588,40.1723501 56.3443261,40.7155256 55.8951151,41.5731903 C55.5813785,42.1964488 55.0273632,42.7144622 54.233069,43.1272303 C53.4387749,43.5399984 52.6641242,43.7786083 51.9091169,43.84306 C51.660461,42.7342962 51.3154869,42.0380352 50.8741948,41.754277 C50.5890613,41.5709313 50.1995624,41.6591294 49.6603862,41.6623141 C49.4635264,41.6634769 49.1225858,41.633769 48.6375644,41.5731903 C47.8267408,43.0440671 47.1764114,43.9473205 46.6865762,44.2829506 C46.1967409,44.6185806 45.0006027,44.7725786 43.0981616,44.7449446 C40.9584739,44.6234091 39.491902,44.8030255 38.698446,45.2837941 C37.5410708,45.9246273 36.9137723,46.9647266 36.8165503,48.4040918 C36.4256716,48.7542333 36.2302323,49.215129 36.2302323,49.7867788 C36.2302323,50.3584287 36.4725715,51.1461794 36.9572498,52.1500309 L53.580346,55.0839699 L7.97356272,55.0839699 L26.7065075,52.2682036 C27.1537499,51.6196687 27.4325299,51.1171684 27.5428474,50.7607027 C27.6531648,50.404237 27.7977232,49.844619 27.9765226,49.0818488 C28.7423555,48.0258478 29.1069556,47.2452284 29.0703227,46.7399905 C29.0066255,45.7885774 28.8253469,45.1628441 28.526487,44.8627904 L24.2412454,42.5838531 Z M19.7403486,35.5210026 C20.3583284,36.3876104 20.9215636,37.1186776 21.4300541,37.7142042 C21.9385446,38.3097308 22.809363,39.2581778 24.0425094,40.5595453 C24.9530449,41.5766009 25.4891839,41.7942484 25.6509264,41.212488 C25.675509,40.5955464 25.5400761,38.9524173 25.2446278,36.2831008 C23.4866413,35.4222104 22.3442475,34.9587826 21.8174466,34.8928172 C21.2906457,34.8268519 20.5982797,35.036247 19.7403486,35.5210026 Z M27.410869,35.3475501 C27.3112313,36.4900114 27.2614124,37.3976334 27.2614124,38.0704161 C27.2614124,39.0795902 27.1869683,39.5426885 27.2614124,40.3184257 C27.3358566,41.0941629 27.4118933,41.4447568 27.6288408,41.8991645 C27.7734725,42.202103 28.0917436,42.5218753 28.5836541,42.8584812 C29.0698769,43.551381 29.4283597,43.9050874 29.6591026,43.9196006 C29.8898454,43.9341137 30.1895351,43.5804073 30.5581717,42.8584812 C30.8215303,41.5700554 31.1674721,40.6013017 31.5959972,39.9522201 C31.9292955,39.4473774 32.7206827,38.7320507 33.9577902,37.3614721 C34.1934264,37.1004131 34.5373548,36.6459897 34.9895753,35.9982018 C34.4382686,35.9660075 34.0343102,35.9660075 33.7777002,35.9982018 C33.3927852,36.0464934 31.7204292,36.673657 31.0131857,36.5579911 C30.2432947,36.412177 30.3475346,36.462285 29.2695836,35.3539806 C28.2432349,35.0092936 27.6236633,35.0071501 27.410869,35.3475501 Z M32.6704102,44.0635774 C33.2478315,44.4672918 33.9977317,44.1868543 34.9201108,43.2222649 C35.5403558,42.5736361 36.0051223,41.109255 36.9156834,39.7014299 C37.2113855,39.2442428 37.7895947,38.6137735 38.6503112,37.8100218 C38.5019845,37.5770262 38.4598743,37.3495639 38.5239808,37.127635 C38.5880872,36.9057061 38.7985804,36.5502459 39.1554605,36.0612543 C39.4059645,35.6741599 39.4059645,35.4657387 39.1554605,35.4359906 C38.9049566,35.4062426 38.2741384,35.5397525 37.2630059,35.8365202 C34.8924833,38.9044141 33.6017379,40.5852575 33.39077,40.8790502 C33.1798021,41.1728429 32.9725879,41.5780492 32.7691274,42.094669 C32.6521639,42.5802099 32.588596,42.9244237 32.5784237,43.1273104 C32.5682513,43.330197 32.5989135,43.6422861 32.6704102,44.0635774 Z M36.8221575,43.8460134 C37.3314244,43.6400459 38.016992,43.5016224 38.8788602,43.4307426 C39.7407284,43.3598629 41.1128648,43.3403932 42.9952693,43.3723334 C43.2380811,43.3750849 43.4829571,43.2370561 43.7298974,42.958247 C43.87902,42.7898793 44.0141024,42.5306707 44.2416951,42.2271896 C44.3412219,42.0944767 44.5251524,41.8741008 44.7934866,41.5660618 C44.6704836,41.4348307 44.5997297,41.2886192 44.5812249,41.1274274 C44.4838339,40.2790738 44.5812249,39.4633836 44.4381596,39.1430212 C44.3060404,38.8471701 44.0359481,38.743505 43.6278827,38.8320257 C42.3829031,39.2974692 41.5625211,39.5301909 41.1667368,39.5301909 C40.7709525,39.5301909 40.4192225,39.275882 40.1115468,38.7672641 C38.9655411,39.8562417 38.20108,40.7027 37.8181634,41.3066388 C37.4352468,41.9105776 37.1032448,42.7570358 36.8221575,43.8460134 Z" id="Combined-Shape" fill="#FFFFFF"></path>
                <path d="M70.353,21.417 C70.353,19.5469907 70.6609969,17.8475076 71.277,16.3185 C71.8930031,14.7894924 72.7454946,13.4860054 73.8345,12.408 C74.9235054,11.3299946 76.2214925,10.4995029 77.7285,9.9165 C79.2355075,9.33349708 80.890991,9.042 82.695,9.042 C84.5210091,9.01999989 86.1929924,9.28949719 87.711,9.8505 C89.2290076,10.4115028 90.5379945,11.2309946 91.638,12.309 C92.7380055,13.3870054 93.5959969,14.6849924 94.212,16.203 C94.8280031,17.7210076 95.136,19.4149906 95.136,21.285 C95.136,23.1110091 94.8280031,24.7719925 94.212,26.268 C93.5959969,27.7640075 92.7380055,29.0509946 91.638,30.129 C90.5379945,31.2070054 89.2290076,32.048497 87.711,32.6535 C86.1929924,33.258503 84.5210091,33.5719999 82.695,33.594 C80.890991,33.594 79.2355075,33.3025029 77.7285,32.7195 C76.2214925,32.1364971 74.9235054,31.3115053 73.8345,30.2445 C72.7454946,29.1774947 71.8930031,27.8960075 71.277,26.4 C70.6609969,24.9039925 70.353,23.2430091 70.353,21.417 Z M74.709,21.153 C74.709,22.4070063 74.9014981,23.5619947 75.2865,24.618 C75.6715019,25.6740053 76.2159965,26.5869961 76.92,27.357 C77.6240035,28.1270039 78.4654951,28.7319978 79.4445,29.172 C80.4235049,29.6120022 81.517994,29.832 82.728,29.832 C83.938006,29.832 85.0379951,29.6120022 86.028,29.172 C87.018005,28.7319978 87.8649965,28.1270039 88.569,27.357 C89.2730035,26.5869961 89.8174981,25.6740053 90.2025,24.618 C90.5875019,23.5619947 90.78,22.4070063 90.78,21.153 C90.78,19.9869942 90.5875019,18.8980051 90.2025,17.886 C89.8174981,16.8739949 89.2730035,15.9885038 88.569,15.2295 C87.8649965,14.4704962 87.018005,13.8765021 86.028,13.4475 C85.0379951,13.0184979 83.938006,12.804 82.728,12.804 C81.517994,12.804 80.4235049,13.0184979 79.4445,13.4475 C78.4654951,13.8765021 77.6240035,14.4704962 76.92,15.2295 C76.2159965,15.9885038 75.6715019,16.8739949 75.2865,17.886 C74.9014981,18.8980051 74.709,19.9869942 74.709,21.153 Z M98.733,17.16 L102.693,17.16 L102.693,19.668 L102.759,19.668 C103.199002,18.7439954 103.825996,18.0290025 104.64,17.523 C105.454004,17.0169975 106.388995,16.764 107.445,16.764 C107.687001,16.764 107.923499,16.7859998 108.1545,16.83 C108.385501,16.8740002 108.621999,16.9289997 108.864,16.995 L108.864,20.823 C108.533998,20.7349996 108.209502,20.6635003 107.8905,20.6085 C107.571498,20.5534997 107.258002,20.526 106.95,20.526 C106.025995,20.526 105.283503,20.6964983 104.7225,21.0375 C104.161497,21.3785017 103.732501,21.7689978 103.4355,22.209 C103.138499,22.6490022 102.9405,23.0889978 102.8415,23.529 C102.7425,23.9690022 102.693,24.2989989 102.693,24.519 L102.693,33 L98.733,33 L98.733,17.16 Z M111.636,17.16 L115.596,17.16 L115.596,33 L111.636,33 L111.636,17.16 Z M111.075,11.781 C111.075,11.1429968 111.311498,10.5875024 111.7845,10.1145 C112.257502,9.64149764 112.856996,9.405 113.583,9.405 C114.309004,9.405 114.919498,9.63049774 115.4145,10.0815 C115.909502,10.5325023 116.157,11.0989966 116.157,11.781 C116.157,12.4630034 115.909502,13.0294977 115.4145,13.4805 C114.919498,13.9315023 114.309004,14.157 113.583,14.157 C112.856996,14.157 112.257502,13.9205024 111.7845,13.4475 C111.311498,12.9744976 111.075,12.4190032 111.075,11.781 Z M119.358,25.08 C119.358,23.8259937 119.583498,22.6875051 120.0345,21.6645 C120.485502,20.6414949 121.095996,19.7670036 121.866,19.041 C122.636004,18.3149964 123.548995,17.754002 124.605,17.358 C125.661005,16.961998 126.782994,16.764 127.971,16.764 C129.159006,16.764 130.280995,16.961998 131.337,17.358 C132.393005,17.754002 133.305996,18.3149964 134.076,19.041 C134.846004,19.7670036 135.456498,20.6414949 135.9075,21.6645 C136.358502,22.6875051 136.584,23.8259937 136.584,25.08 C136.584,26.3340063 136.358502,27.4724949 135.9075,28.4955 C135.456498,29.5185051 134.846004,30.3929964 134.076,31.119 C133.305996,31.8450036 132.393005,32.405998 131.337,32.802 C130.280995,33.198002 129.159006,33.396 127.971,33.396 C126.782994,33.396 125.661005,33.198002 124.605,32.802 C123.548995,32.405998 122.636004,31.8450036 121.866,31.119 C121.095996,30.3929964 120.485502,29.5185051 120.0345,28.4955 C119.583498,27.4724949 119.358,26.3340063 119.358,25.08 Z M123.318,25.08 C123.318,25.6960031 123.422499,26.2899971 123.6315,26.862 C123.840501,27.4340029 124.148498,27.9399978 124.5555,28.38 C124.962502,28.8200022 125.451997,29.1719987 126.024,29.436 C126.596003,29.7000013 127.244996,29.832 127.971,29.832 C128.697004,29.832 129.345997,29.7000013 129.918,29.436 C130.490003,29.1719987 130.979498,28.8200022 131.3865,28.38 C131.793502,27.9399978 132.101499,27.4340029 132.3105,26.862 C132.519501,26.2899971 132.624,25.6960031 132.624,25.08 C132.624,24.4639969 132.519501,23.8700029 132.3105,23.298 C132.101499,22.7259971 131.793502,22.2200022 131.3865,21.78 C130.979498,21.3399978 130.490003,20.9880013 129.918,20.724 C129.345997,20.4599987 128.697004,20.328 127.971,20.328 C127.244996,20.328 126.596003,20.4599987 126.024,20.724 C125.451997,20.9880013 124.962502,21.3399978 124.5555,21.78 C124.148498,22.2200022 123.840501,22.7259971 123.6315,23.298 C123.422499,23.8700029 123.318,24.4639969 123.318,25.08 Z M140.28,17.16 L144.042,17.16 L144.042,19.701 L144.108,19.701 C144.482002,18.908996 145.053996,18.2215029 145.824,17.6385 C146.594004,17.0554971 147.638993,16.764 148.959,16.764 C150.015005,16.764 150.911496,16.9399982 151.6485,17.292 C152.385504,17.6440018 152.984998,18.1059971 153.447,18.678 C153.909002,19.2500029 154.238999,19.9099963 154.437,20.658 C154.635001,21.4060037 154.734,22.1869959 154.734,23.001 L154.734,33 L150.774,33 L150.774,24.981 C150.774,24.5409978 150.752,24.0515027 150.708,23.5125 C150.664,22.9734973 150.548501,22.4675024 150.3615,21.9945 C150.174499,21.5214976 149.883002,21.1255016 149.487,20.8065 C149.090998,20.4874984 148.552003,20.328 147.87,20.328 C147.209997,20.328 146.654502,20.4379989 146.2035,20.658 C145.752498,20.8780011 145.378501,21.1749981 145.0815,21.549 C144.784499,21.9230019 144.570001,22.3519976 144.438,22.836 C144.305999,23.3200024 144.24,23.8259974 144.24,24.354 L144.24,33 L140.28,33 L140.28,17.16 Z" id="Orion" fill="#FFFFFF"></path>
            </g>
        </g>
    </g>
</svg>